<svg width="253" height="46" viewBox="0 0 253 46" fill="none" xmlns="http://www.w3.org/2000/svg">
<g clip-path="url(#clip0_1031_1196)">
<path d="M84.0192 8.47977V38.7057H83.7944L64.5044 18.9055V38.2284H59.771V8.03906H60.0194L79.2759 27.8039V8.47977H84.0192Z" fill="#2A3550"/>
<path d="M137.483 8.5542L123.569 38.7985H123.251L109.388 8.5542H114.411L123.391 28.6133L132.41 8.5542H137.483Z" fill="#2A3550"/>
<path d="M87.6157 38.7985L101.53 8.5542H101.848L115.711 38.7985H110.679L101.698 18.7394L92.682 38.7985H87.6157Z" fill="#2A3550"/>
<path d="M191.733 38.7985L205.648 8.5542H205.966L219.829 38.7985H214.796L205.815 18.7394L196.797 38.7985H191.733Z" fill="#009AA0"/>
<path d="M145.558 13.131V22.2358H154.072L151.119 26.5001H145.558V33.5588H158.789V38.1905H140.828V8.55542H158.79V13.131H145.558Z" fill="#2A3550"/>
<path d="M192.22 22.0149H183.654L180.702 26.2791H187.287V26.3683C187.287 30.8926 183.395 33.9995 178.218 33.9995C176.798 34.0273 175.386 33.78 174.063 33.2717C172.74 32.7634 171.532 32.004 170.508 31.0369C169.484 30.0698 168.663 28.9139 168.094 27.6353C167.524 26.3567 167.217 24.9803 167.188 23.5848C167.16 22.1893 167.412 20.802 167.929 19.5021C168.446 18.2022 169.219 17.0151 170.203 16.0087C171.187 15.0023 172.364 14.1962 173.665 13.6364C174.966 13.0767 176.367 12.7743 177.787 12.7465C180.964 12.8974 183.965 14.2237 186.187 16.459L188.826 12.6C185.852 9.81971 181.945 8.20445 177.843 8.05859C175.796 8.0695 173.772 8.4764 171.885 9.25606C169.999 10.0357 168.287 11.1729 166.848 12.6026C165.408 14.0323 164.27 15.7266 163.497 17.5888C162.724 19.4509 162.332 21.4444 162.343 23.4554C162.354 25.4664 162.768 27.4556 163.562 29.3094C164.355 31.1632 165.512 32.8453 166.967 34.2596C168.422 35.6739 170.146 36.7927 172.041 37.5523C173.936 38.3118 175.965 38.6971 178.012 38.6862C185.851 38.6862 192.361 33.1352 192.361 24.3295C192.355 23.5561 192.308 22.7835 192.22 22.0149Z" fill="#2A3550"/>
<path d="M252.998 7.91089V38.1869H248.264V21.7548L238.255 37.6949H238.214L228.186 21.7365V38.1918H223.452V7.91577H223.807L238.232 29.4642L252.644 7.91577L252.998 7.91089Z" fill="#009AA0"/>
<path d="M19.0017 30.4727C21.2321 32.0249 23.6532 33.294 26.2073 34.2498L25.6371 34.682L21.0503 36.711L4.49226 22.0296L4.6314 43.9577L0.00488281 46.0001L0.0881221 13.3435C2.01183 14.7521 4.10791 15.9177 6.3272 16.813C9.4963 18.1039 12.0822 20.4792 13.6062 23.4994C14.8284 26.2045 16.6758 28.5921 19.0017 30.4727V30.4727Z" fill="#2A3550"/>
<path d="M27.6807 0.00610352L27.5937 32.526C24.6202 31.4959 21.8448 29.9804 19.3842 28.0432C16.8623 25.8213 15.9454 22.7326 14.0968 20.053C11.0306 15.6056 5.4351 14.9769 1.49561 11.7381L2.04348 11.3193L6.64017 9.294L23.1982 23.9754L23.0591 2.04729L27.6807 0.00610352Z" fill="#2A3550"/>
<path d="M9.74512 7.91457L19.9324 3.41467L20.0181 17.0279L9.74512 7.91457Z" fill="#009AA0"/>
<path d="M17.9122 38.0917L7.72488 42.5916L7.63916 28.9784L17.9122 38.0917Z" fill="#009AA0"/>
</g>
<defs>
<clipPath id="clip0_1031_1196">
<rect width="253" height="46" fill="white"/>
</clipPath>
</defs>
</svg>
